<svg width="111" height="49" viewBox="0 0 111 49" fill="none" xmlns="http://www.w3.org/2000/svg">
<path d="M0.8663 0V20.4146L15.9701 29.1152L0 38.3809L17.665 48.5505L34.5014 38.8328V19.4353L0.8663 0Z" fill="#FDFDFD"/>
<path d="M1.69531 38.3809L17.6654 47.6088V29.1529L1.69531 38.3809Z" fill="#EC3B7F"/>
<path d="M1.69531 1.46894V19.9249L17.6654 10.6969L1.69531 1.46894Z" fill="#FBB732"/>
<path d="M17.6654 10.6969L1.69531 19.9249L17.6654 29.1529V10.6969Z" fill="#F69320"/>
<path d="M33.6718 38.3809V19.9249L17.6641 29.1529L33.6718 38.3809Z" fill="#7B1B66"/>
<path d="M17.6641 29.1529L33.6718 19.9249L17.6641 10.6969V29.1529Z" fill="#EF5A22"/>
<path d="M33.6718 38.3809L17.6641 29.1529V47.6088L33.6718 38.3809Z" fill="#C20C41"/>
<path d="M106.142 38.7952H111V35.669V29.4166C111 28.4749 111 20.1509 111 20.1509V19.0963V17.3637C110.473 17.5143 108.063 18.1923 106.857 19.6236C106.33 20.1886 106.142 20.9795 106.142 21.6575V35.9703V38.7952Z" fill="#FDFDFD"/>
<path d="M67.6462 17.4767C61.2808 17.4767 56.3467 22.2602 56.3467 28.3619C56.3467 34.426 61.2432 39.1718 67.5332 39.1718C73.861 39.1718 78.8328 34.426 78.8328 28.3243C78.8705 22.2602 73.9363 17.4767 67.6462 17.4767ZM67.6462 34.991C63.9927 34.991 61.2432 32.1284 61.2432 28.3243C61.2432 24.4824 63.9927 21.6198 67.5709 21.6198C71.1868 21.6198 73.974 24.5577 73.974 28.3619C73.9363 32.1284 71.2621 34.991 67.6462 34.991Z" fill="#FDFDFD"/>
<path d="M93.5992 17.552C90.586 17.552 88.3261 18.7949 86.4428 21.3185C86.4428 20.3392 86.4428 12.0152 86.4428 12.0152V10.9606V9.22798C85.9155 9.37864 83.5426 10.0566 82.2996 11.4879C81.81 12.0152 81.584 12.8438 81.584 13.5218V27.8346V30.8855V38.7952H86.4428C86.4428 38.7952 86.4428 36.4223 86.4428 35.669C88.2131 38.0419 90.586 39.2472 93.5992 39.2472C98.3827 39.2472 103.467 35.4053 103.467 28.3243C103.467 21.3562 98.3827 17.552 93.5992 17.552ZM92.5069 35.0663C89.0417 35.0663 86.5558 32.2414 86.5558 28.3243C86.5558 24.5577 89.117 21.6952 92.5069 21.6952C96.0098 21.6952 98.5333 24.4824 98.5333 28.3243C98.5333 32.3544 96.1228 35.0663 92.5069 35.0663Z" fill="#FDFDFD"/>
<path d="M43.3535 38.7952H48.2123V30.6595C48.2123 26.0267 50.6606 23.0888 54.9544 22.7121C55.5194 22.6745 56.1597 22.5615 56.1597 21.6575V17.7403H55.557C52.3178 17.7403 49.7566 19.3976 48.25 22.2978C48.25 21.2432 48.25 17.4013 48.25 17.4013V17.3637C47.7227 17.5143 45.3498 18.1923 44.0692 19.6236C43.5795 20.1509 43.3912 20.9795 43.3912 21.6575V22.8628V38.7952H43.3535Z" fill="#FDFDFD"/>
</svg>
